<svg viewBox="0 0 120 120" xmlns="http://www.w3.org/2000/svg">
  <defs>
    <linearGradient id="cloudGradient1" x1="0%" y1="0%" x2="100%" y2="100%">
      <stop offset="0%" stop-color="#ffffff" />
      <stop offset="100%" stop-color="#f0f0f0" />
    </linearGradient>
    <linearGradient id="cloudGradient2" x1="0%" y1="0%" x2="100%" y2="100%">
      <stop offset="0%" stop-color="#f0f0f0" />
      <stop offset="100%" stop-color="#e6e6e6" />
    </linearGradient>
  </defs>
  
  <!-- Back cloud -->
  <path d="M25,80 
           C15,80 10,73 10,65 
           C10,55 20,45 35,45 
           C50,45 65,55 65,70 
           C65,75 62,80 55,85 
           C50,88 40,90 35,90 
           C27,90 23,85 17,85
           C10,85 5,90 5,80
           C5,75 15,80 25,80 Z" 
        fill="url(#cloudGradient2)" 
        filter="drop-shadow(0px 3px 2px rgba(0,0,0,0.08))" />
        
  <!-- Front cloud -->
  <path d="M40,70 
           C30,70 25,63 25,55 
           C25,45 35,35 50,35 
           C65,35 80,45 80,60 
           C80,65 77,70 70,75 
           C65,78 55,80 50,80 
           C42,80 38,75 32,75
           C25,75 20,80 20,70
           C20,65 30,70 40,70 Z" 
        fill="url(#cloudGradient1)" 
        filter="drop-shadow(0px 5px 3px rgba(0,0,0,0.1))" />
</svg>
