<svg viewBox="0 0 120 120" xmlns="http://www.w3.org/2000/svg">
  <defs>
    <linearGradient id="cloudGradient" x1="0%" y1="0%" x2="100%" y2="100%">
      <stop offset="0%" stop-color="#f0f0f0" />
      <stop offset="100%" stop-color="#e0e0e0" />
    </linearGradient>
    <linearGradient id="drizzleGradient" x1="0%" y1="0%" x2="100%" y2="100%">
      <stop offset="0%" stop-color="#b3e5fc" />
      <stop offset="100%" stop-color="#81d4fa" />
    </linearGradient>
  </defs>
  
  <!-- Cloud -->
  <path d="M30,60 
           C20,60 15,53 15,45 
           C15,35 25,25 40,25 
           C55,25 70,35 70,50 
           C70,55 67,60 60,65 
           C55,68 45,70 40,70 
           C32,70 28,65 22,65
           C15,65 10,70 10,60
           C10,55 20,60 30,60 Z" 
        fill="url(#cloudGradient)" 
        filter="drop-shadow(0px 3px 3px rgba(0,0,0,0.12))" />
  
  <!-- Drizzle drops (smaller and more scattered than regular rain) -->
  <path d="M35,75 L33,85 M55,80 L53,90 M25,80 L23,90 M65,75 L63,85 M45,78 L43,88 M75,78 L73,88 M30,85 L28,95 M50,85 L48,95"
        stroke="url(#drizzleGradient)" stroke-width="2" stroke-linecap="round" />
</svg>
