<svg viewBox="0 0 120 120" xmlns="http://www.w3.org/2000/svg">
  <defs>
    <linearGradient id="cloudGradient" x1="0%" y1="0%" x2="100%" y2="100%">
      <stop offset="0%" stop-color="#f0f0f0" />
      <stop offset="100%" stop-color="#e0e0e0" />
    </linearGradient>
    <radialGradient id="snowflakeGradient" cx="50%" cy="50%" r="50%" fx="50%" fy="50%">
      <stop offset="0%" stop-color="#ffffff" />
      <stop offset="100%" stop-color="#eceff1" />
    </radialGradient>
  </defs>
  
  <!-- Cloud -->
  <path d="M30,50 
           C20,50 15,43 15,35 
           C15,25 25,15 40,15 
           C55,15 70,25 70,40 
           C70,45 67,50 60,55 
           C55,58 45,60 40,60 
           C32,60 28,55 22,55
           C15,55 10,60 10,50
           C10,45 20,50 30,50 Z" 
        fill="url(#cloudGradient)" 
        filter="drop-shadow(0px 3px 3px rgba(0,0,0,0.12))" />
  
  <!-- Snowflakes -->
  <g transform="translate(30, 80)">
    <circle cx="0" cy="0" r="5" fill="url(#snowflakeGradient)" />
    <path d="M0,-8 L0,8 M-6,-6 L6,6 M-8,0 L8,0 M-6,6 L6,-6" 
          stroke="#eceff1" stroke-width="1.5" />
  </g>
  
  <g transform="translate(50, 70)">
    <circle cx="0" cy="0" r="5" fill="url(#snowflakeGradient)" />
    <path d="M0,-8 L0,8 M-6,-6 L6,6 M-8,0 L8,0 M-6,6 L6,-6" 
          stroke="#eceff1" stroke-width="1.5" />
  </g>
  
  <g transform="translate(70, 80)">
    <circle cx="0" cy="0" r="5" fill="url(#snowflakeGradient)" />
    <path d="M0,-8 L0,8 M-6,-6 L6,6 M-8,0 L8,0 M-6,6 L6,-6" 
          stroke="#eceff1" stroke-width="1.5" />
  </g>
  
  <g transform="translate(40, 95)">
    <circle cx="0" cy="0" r="5" fill="url(#snowflakeGradient)" />
    <path d="M0,-8 L0,8 M-6,-6 L6,6 M-8,0 L8,0 M-6,6 L6,-6" 
          stroke="#eceff1" stroke-width="1.5" />
  </g>
  
  <g transform="translate(60, 95)">
    <circle cx="0" cy="0" r="5" fill="url(#snowflakeGradient)" />
    <path d="M0,-8 L0,8 M-6,-6 L6,6 M-8,0 L8,0 M-6,6 L6,-6" 
          stroke="#eceff1" stroke-width="1.5" />
  </g>
</svg>
