<svg width="100" height="100" xmlns="http://www.w3.org/2000/svg">
  <!-- Snowflake pattern -->
  <g fill="white" opacity="0.8">
    <circle cx="20" cy="20" r="2" />
    <circle cx="50" cy="10" r="2" />
    <circle cx="80" cy="25" r="2" />
    <circle cx="10" cy="50" r="2" />
    <circle cx="40" cy="40" r="2" />
    <circle cx="70" cy="50" r="2" />
    <circle cx="90" cy="70" r="2" />
    <circle cx="20" cy="80" r="2" />
    <circle cx="60" cy="75" r="2" />
    <circle cx="30" cy="60" r="2" />
    <circle cx="80" cy="90" r="2" />
    <circle cx="55" cy="55" r="2" />
  </g>
  
  <g fill="white" opacity="0.6">
    <circle cx="15" cy="35" r="1" />
    <circle cx="45" cy="25" r="1" />
    <circle cx="75" cy="10" r="1" />
    <circle cx="25" cy="65" r="1" />
    <circle cx="55" cy="40" r="1" />
    <circle cx="85" cy="45" r="1" />
    <circle cx="5" cy="85" r="1" />
    <circle cx="35" cy="90" r="1" />
    <circle cx="65" cy="65" r="1" />
    <circle cx="95" cy="30" r="1" />
  </g>
</svg>
